<?xml version="1.0" standalone="no"?>
<!DOCTYPE svg PUBLIC "-//W3C//DTD SVG 20010904//EN"
 "http://www.w3.org/TR/2001/REC-SVG-20010904/DTD/svg10.dtd">
<svg version="1.0" xmlns="http://www.w3.org/2000/svg"
 width="96.000000pt" height="96.000000pt" viewBox="0 0 96.000000 96.000000"
 preserveAspectRatio="xMidYMid meet">
<metadata>
Created by potrace 1.11, written by Peter Selinger 2001-2013
</metadata>
<g transform="translate(0.000000,96.000000) scale(0.100000,-0.100000)"
fill="#000000" stroke="none">
<path d="M112 945 c-4 -5 -7 -131 -8 -280 -1 -296 5 -336 56 -410 52 -74 156
-157 300 -238 28 -16 34 -17 48 -4 10 7 53 36 97 63 44 27 112 80 150 119 107
107 109 117 111 463 0 194 -3 285 -10 290 -18 12 -737 9 -744 -3z"/>
</g>
</svg>
